<svg aria-hidden="true" style="position: absolute; width: 0; height: 0; overflow: hidden;" version="1.1" xmlns="http://www.w3.org/2000/svg" xmlns:xlink="http://www.w3.org/1999/xlink">
<defs>
<symbol id="icon-facebook" viewBox="0 0 32 32">
<path fill="#f7f8fa" style="fill: var(--color1, #f7f8fa)" d="M19.518 4.64c0.24 0 0.48 0 0.96 0v3.6c-0.24 0-0.72 0-1.2 0s-0.96 0-1.2 0.24c-0.24 0.24-0.24 0.48-0.24 1.040 0 0.48 0 0.8 0 1.28h2.64v3.040h-2.64v13.2h-4.080v-13.28h-2.16v-3.040h2.16v-1.040c0-1.76 0.24-3.040 0.72-3.6 0.72-1.040 2.16-1.52 4.32-1.52 0.24 0.080 0.48 0.080 0.72 0.080z"></path>
</symbol>
<symbol id="icon-instagram" viewBox="0 0 32 32">
<path fill="#f7f8fa" style="fill: var(--color1, #f7f8fa)" opacity="0.8" d="M28.718 10.756c-0.016-1.074-0.215-2.14-0.596-3.145-0.667-1.716-2.024-3.073-3.743-3.737-0.994-0.373-2.044-0.573-3.108-0.596-1.368-0.061-1.801-0.078-5.273-0.078s-3.916 0-5.274 0.078c-1.062 0.023-2.112 0.223-3.106 0.596-1.719 0.664-3.078 2.021-3.743 3.737-0.374 0.992-0.576 2.041-0.596 3.101-0.061 1.367-0.080 1.8-0.080 5.265s0 3.909 0.080 5.265c0.021 1.062 0.222 2.109 0.596 3.104 0.667 1.714 2.024 3.071 3.744 3.735 0.989 0.386 2.040 0.605 3.106 0.639 1.369 0.061 1.803 0.079 5.274 0.079s3.916 0 5.274-0.079c1.062-0.021 2.112-0.221 3.108-0.595 1.719-0.666 3.076-2.022 3.743-3.737 0.374-0.994 0.574-2.041 0.596-3.104 0.061-1.365 0.080-1.798 0.080-5.265-0.003-3.466-0.003-3.906-0.082-5.264zM15.991 22.531c-3.631 0-6.572-2.936-6.572-6.561s2.941-6.561 6.572-6.561c3.628 0 6.572 2.936 6.572 6.561s-2.944 6.561-6.572 6.561zM22.825 10.696c-0.849 0-1.533-0.684-1.533-1.53s0.684-1.53 1.533-1.53c0.846 0 1.531 0.684 1.531 1.53s-0.685 1.53-1.531 1.53z"></path>
<path fill="#f7f8fa" style="fill: var(--color1, #f7f8fa)" opacity="0.8" d="M15.991 19.976c2.211 0 4.004-1.793 4.004-4.004s-1.793-4.004-4.004-4.004c-2.211 0-4.004 1.793-4.004 4.004s1.793 4.004 4.004 4.004z"></path>
</symbol>
<symbol id="icon-youTube" viewBox="0 0 32 32">
<path fill="#f7f8fa" style="fill: var(--color1, #f7f8fa)" opacity="0.8" d="M24.239 5.999c-1.36-0.080-4.16-0.16-8.4-0.16h-0.56c-4.080 0-6.8 0.080-8.16 0.24-1.84 0.16-3.12 0.64-3.84 1.28-0.64 0.56-1.12 1.6-1.28 2.96-0.080 0.88-0.16 2.72-0.16 5.52v0.4c0 2.64 0.080 4.48 0.24 5.36 0.24 1.28 0.64 2.24 1.44 2.8 0.8 0.64 2.16 1.040 4.080 1.2 1.36 0.080 4.16 0.16 8.4 0.16h0.56c4.080 0 6.8-0.080 8.16-0.24 1.84-0.16 3.12-0.64 3.84-1.28 0.64-0.56 1.12-1.6 1.28-2.96 0.080-0.88 0.16-2.72 0.16-5.52v-0.4c0-2.64-0.080-4.48-0.24-5.36-0.24-1.28-0.64-2.24-1.44-2.8-0.8-0.64-2.16-1.040-4.080-1.2zM21.119 15.839l-8.8 5.28v-10.56l8.8 5.28z"></path>
</symbol>
<symbol id="icon-phone" viewBox="0 0 32 32">
<path stroke-linejoin="round" stroke-linecap="round" stroke-miterlimit="4" stroke-width="2.6667" d="M29.33 22.56v4c0.002 0.371-0.075 0.739-0.223 1.079s-0.367 0.646-0.641 0.897c-0.274 0.251-0.597 0.442-0.948 0.561s-0.725 0.163-1.094 0.13c-4.103-0.446-8.044-1.848-11.507-4.093-3.222-2.047-5.953-4.779-8-8-2.253-3.478-3.656-7.439-4.093-11.56-0.033-0.369 0.010-0.74 0.129-1.091s0.308-0.673 0.558-0.947c0.25-0.273 0.553-0.492 0.892-0.641s0.705-0.227 1.075-0.227h4c0.647-0.006 1.274 0.223 1.765 0.645s0.811 1.008 0.902 1.649c0.169 1.28 0.482 2.537 0.933 3.747 0.179 0.477 0.218 0.996 0.112 1.495s-0.353 0.956-0.712 1.319l-1.693 1.693c1.898 3.338 4.662 6.102 8 8l1.693-1.693c0.363-0.359 0.82-0.605 1.319-0.712s1.017-0.067 1.494 0.112c1.21 0.451 2.467 0.764 3.747 0.933 0.648 0.091 1.239 0.418 1.662 0.917s0.647 1.136 0.631 1.79z"></path>
</symbol>
<symbol id="icon-map" viewBox="0 0 32 32">
<path stroke-linejoin="round" stroke-linecap="round" stroke-miterlimit="4" stroke-width="2.6667" d="M28 13.333c0 9.333-12 17.333-12 17.333s-12-8-12-17.333c0-3.183 1.264-6.235 3.515-8.485s5.303-3.515 8.485-3.515c3.183 0 6.235 1.264 8.485 3.515s3.515 5.303 3.515 8.485z"></path>
<path stroke-linejoin="round" stroke-linecap="round" stroke-miterlimit="4" stroke-width="2.6667" d="M16 17.333c2.209 0 4-1.791 4-4s-1.791-4-4-4c-2.209 0-4 1.791-4 4s1.791 4 4 4z"></path>
</symbol>

<symbol id="icon-burger-btn-white" viewBox="0 0 32 26" fill="none">
  <path d="M28.3379 13.207H4.33789" stroke="white" stroke-width="2" stroke-linecap="round" stroke-linejoin="round" />
  <path d="M28.3379 8.00684H4.33789" stroke="white" stroke-width="2" stroke-linecap="round" stroke-linejoin="round" />
  <path d="M28.3379 18.4072H4.33789" stroke="white" stroke-width="2" stroke-linecap="round" stroke-linejoin="round" />
</symbol>

<symbol id="icon-burger-btn-green" viewBox="0 0 32 26" fill="none">
  <path d="M28.3379 13.207H4.33789" stroke="#59B17A" stroke-width="2" stroke-linecap="round" stroke-linejoin="round" />
  <path d="M28.3379 8.00684H4.33789" stroke="#59B17A" stroke-width="2" stroke-linecap="round" stroke-linejoin="round" />
  <path d="M28.3379 18.4072H4.33789" stroke="#59B17A" stroke-width="2" stroke-linecap="round" stroke-linejoin="round" />
</symbol>

<symbol id="icon-close" viewBox="0 0 32 32" fill="none">
  <path d="M24 8L8 24" stroke="white" stroke-width="2" stroke-linecap="round" stroke-linejoin="round" />
  <path d="M8 8L24 24" stroke="white" stroke-width="2" stroke-linecap="round" stroke-linejoin="round" />
</symbol>

<symbol id="icon-menu-border" viewBox="0 0 134 142" fill="none">>
  <mask id="path-1-inside-1_306_6241" fill="white">
    <path fill-rule="evenodd" clip-rule="evenodd" d="M19 23C19 10.2975 29.2975 0 42 0H92C104.703 0 115 10.2975 115 23C115 35.7025 104.703 46 92 46H74.5V48H111C123.703 48 134 58.2975 134 71C134 83.7025 123.703 94 111 94H75V96H100C112.703 96 123 106.297 123 119C123 131.703 112.703 142 100 142H34C21.2975 142 11 131.703 11 119C11 106.297 21.2975 96 34 96H60V94H23C10.2974 94 0 83.7025 0 71C0 58.2975 10.2975 48 23 48H59.5V46H42C29.2974 46 19 35.7025 19 23Z" />
  </mask>
  <path fill-rule="evenodd" clip-rule="evenodd" d="M19 23C19 10.2975 29.2975 0 42 0H92C104.703 0 115 10.2975 115 23C115 35.7025 104.703 46 92 46H74.5V48H111C123.703 48 134 58.2975 134 71C134 83.7025 123.703 94 111 94H75V96H100C112.703 96 123 106.297 123 119C123 131.703 112.703 142 100 142H34C21.2975 142 11 131.703 11 119C11 106.297 21.2975 96 34 96H60V94H23C10.2974 94 0 83.7025 0 71C0 58.2975 10.2975 48 23 48H59.5V46H42C29.2974 46 19 35.7025 19 23Z" fill="white" />
  <path d="M74.5 46V44.8451H73.3451V46H74.5ZM74.5 48H73.3451V49.1549H74.5V48ZM75 94V92.8451H73.8451V94H75ZM75 96H73.8451V97.1549H75V96ZM60 96V97.1549H61.1549V96H60ZM60 94H61.1549V92.8451H60V94ZM59.5 48V49.1549H60.6549V48H59.5ZM59.5 46H60.6549V44.8451H59.5V46ZM42 -1.15486C28.6596 -1.15486 17.8451 9.65964 17.8451 23H20.1549C20.1549 10.9353 29.9353 1.15486 42 1.15486V-1.15486ZM92 -1.15486H42V1.15486H92V-1.15486ZM116.155 23C116.155 9.65964 105.34 -1.15486 92 -1.15486V1.15486C104.065 1.15486 113.845 10.9353 113.845 23H116.155ZM92 47.1549C105.34 47.1549 116.155 36.3404 116.155 23H113.845C113.845 35.0647 104.065 44.8451 92 44.8451V47.1549ZM74.5 47.1549H92V44.8451H74.5V47.1549ZM75.6549 48V46H73.3451V48H75.6549ZM111 46.8451H74.5V49.1549H111V46.8451ZM135.155 71C135.155 57.6596 124.34 46.8451 111 46.8451V49.1549C123.065 49.1549 132.845 58.9353 132.845 71H135.155ZM111 95.1549C124.34 95.1549 135.155 84.3404 135.155 71H132.845C132.845 83.0647 123.065 92.8451 111 92.8451V95.1549ZM75 95.1549H111V92.8451H75V95.1549ZM73.8451 94V96H76.1549V94H73.8451ZM75 97.1549H100V94.8451H75V97.1549ZM100 97.1549C112.065 97.1549 121.845 106.935 121.845 119H124.155C124.155 105.66 113.34 94.8451 100 94.8451V97.1549ZM121.845 119C121.845 131.065 112.065 140.845 100 140.845V143.155C113.34 143.155 124.155 132.34 124.155 119H121.845ZM100 140.845H34V143.155H100V140.845ZM34 140.845C21.9353 140.845 12.1549 131.065 12.1549 119H9.84514C9.84514 132.34 20.6596 143.155 34 143.155V140.845ZM12.1549 119C12.1549 106.935 21.9353 97.1549 34 97.1549V94.8451C20.6596 94.8451 9.84514 105.66 9.84514 119H12.1549ZM34 97.1549H60V94.8451H34V97.1549ZM61.1549 96V94H58.8451V96H61.1549ZM23 95.1549H60V92.8451H23V95.1549ZM-1.15486 71C-1.15486 84.3404 9.65964 95.1549 23 95.1549V92.8451C10.9353 92.8451 1.15486 83.0647 1.15486 71H-1.15486ZM23 46.8451C9.65964 46.8451 -1.15486 57.6596 -1.15486 71H1.15486C1.15486 58.9353 10.9353 49.1549 23 49.1549V46.8451ZM59.5 46.8451H23V49.1549H59.5V46.8451ZM58.3451 46V48H60.6549V46H58.3451ZM42 47.1549H59.5V44.8451H42V47.1549ZM17.8451 23C17.8451 36.3404 28.6596 47.1549 42 47.1549V44.8451C29.9353 44.8451 20.1549 35.0647 20.1549 23H17.8451Z" fill="#F1F1F1" mask="url(#path-1-inside-1_306_6241)" />
</symbol>

<symbol id="icon-star" width="16" height="15" viewBox="0 0 16 15" fill="none" >
<path d="M6.20021 4.69703L8 1.28579L9.79979 4.69703C9.95896 4.9987 10.2491 5.20947 10.5851 5.26762L14.3856 5.92519L11.6975 8.69103C11.4598 8.93563 11.3489 9.27666 11.3975 9.61427L11.9465 13.4319L8.48537 11.7301C8.17929 11.5795 7.82071 11.5795 7.51463 11.7301L4.05348 13.4319L4.6025 9.61427C4.65105 9.27666 4.54024 8.93563 4.30252 8.69103L1.6144 5.92519L5.41486 5.26762C5.75095 5.20947 6.04104 4.9987 6.20021 4.69703Z" fill="#FFC531" stroke="#FFC531" stroke-width="1.2"/>
</symbol>

<symbol id="icon-menu" width="20" height="21" viewBox="0 0 20 21" fill="none" >
  <path d="M10.8331 2.16699L3.41094 11.0735C3.12026 11.4223 2.97492 11.5967 2.9727 11.744C2.97077 11.8721 3.02783 11.9939 3.12744 12.0744C3.24201 12.167 3.46904 12.167 3.92308 12.167H9.99972L9.16639 18.8337L16.5885 9.92711C16.8792 9.57831 17.0245 9.4039 17.0267 9.25661C17.0287 9.12856 16.9716 9.00674 16.872 8.92625C16.7574 8.83366 16.5304 8.83366 16.0764 8.83366H9.99972L10.8331 2.16699Z" stroke="#59B17A" stroke-width="1.5" stroke-linecap="round" stroke-linejoin="round" />
</symbol>

<symbol id="icon-elements" width="216" height="168" viewBox="0 0 216 168" fill="none">
<svg width="216" height="168" viewBox="0 0 216 168" fill="none" xmlns="http://www.w3.org/2000/svg">
  <path d="M48.8027 143.945C53.6821 131.868 67.4281 126.033 79.5051 130.912L263.816 205.378L246.146 249.113L61.8351 174.647C49.7581 169.767 43.9233 156.022 48.8027 143.945Z" fill="#59B17A" fill-opacity="0.08" />
  <path d="M113.943 42.8674C118.823 30.7904 132.569 24.9556 144.646 29.835L328.956 104.301L311.286 148.036L126.976 73.5697C114.899 68.6903 109.064 54.9444 113.943 42.8674Z" fill="#59B17A" fill-opacity="0.08" />
  <path d="M30.8349 73.1906C35.7144 61.1136 49.4603 55.2788 61.5373 60.1582L245.848 134.625L228.178 178.359L43.8673 103.893C31.7903 99.0135 25.9555 85.2676 30.8349 73.1906Z" fill="#59B17A" fill-opacity="0.08" />
</svg>
</symbol>
</defs>
</svg>
